<?xml version="1.0" standalone="no"?>
<!DOCTYPE svg PUBLIC "-//W3C//DTD SVG 20010904//EN"
 "http://www.w3.org/TR/2001/REC-SVG-20010904/DTD/svg10.dtd">
<svg version="1.0" xmlns="http://www.w3.org/2000/svg"
 width="500.000000pt" height="500.000000pt" viewBox="0 0 500.000000 500.000000"
 preserveAspectRatio="xMidYMid meet">

<g transform="translate(0.000000,500.000000) scale(0.100000,-0.100000)"
fill="#000000" stroke="none">
<path d="M1106 4917 c-27 -45 -89 -143 -138 -218 l-88 -135 26 -95 c14 -52 46
-184 70 -294 24 -110 52 -222 60 -250 19 -58 422 -1124 433 -1143 4 -7 13 22
20 64 7 43 24 110 38 151 13 40 25 82 26 93 1 11 5 20 9 20 4 0 4 7 1 17 -5
11 -3 14 6 8 10 -5 11 -2 7 13 -4 12 -1 26 8 35 8 8 12 17 9 21 -4 3 -1 6 6 6
8 0 11 6 7 16 -4 10 -2 13 6 8 8 -5 9 -2 5 9 -8 21 2 49 14 41 5 -3 9 -2 8 3
-4 23 2 43 12 38 6 -4 10 -1 8 6 -3 27 1 40 11 34 6 -3 10 -3 10 2 7 106 16
132 52 152 13 7 29 26 36 43 6 18 15 29 18 25 8 -8 34 11 34 25 0 6 -8 4 -17
-3 -19 -16 33 68 58 93 9 9 19 23 22 30 2 7 7 10 11 7 3 -3 -8 -21 -24 -39
-17 -19 -30 -38 -30 -44 0 -6 12 5 28 23 15 19 44 53 66 77 21 24 34 44 28 44
-6 0 -17 -9 -25 -20 -8 -11 -17 -17 -22 -12 -5 4 -5 1 -1 -5 4 -7 2 -13 -3
-13 -18 0 -12 10 31 53 23 23 36 33 28 22 -14 -18 -13 -19 1 -8 9 7 19 10 23
6 4 -4 4 1 0 10 -5 13 3 29 27 53 18 19 38 34 43 34 6 0 4 -5 -4 -10 -11 -7
-12 -10 -2 -10 8 0 26 13 42 29 16 16 32 26 36 22 4 -3 4 0 -1 8 -6 11 -12 9
-26 -10 -10 -13 -20 -21 -23 -18 -3 2 19 28 49 57 30 28 55 48 55 43 0 -5 -7
-14 -15 -21 -8 -7 -12 -17 -8 -23 3 -5 1 -7 -5 -3 -6 3 -14 1 -18 -5 -9 -16
53 -4 74 13 17 14 25 16 117 27 73 9 71 13 -5 15 -35 1 -45 5 -44 17 1 12 -4
15 -20 11 -20 -5 -20 -5 -3 12 22 23 22 23 -12 40 -27 15 -29 14 -24 -4 3 -11
10 -20 15 -20 5 0 6 4 3 10 -3 5 0 7 9 4 12 -5 13 -9 3 -19 -16 -17 -30 -14
-39 8 -9 21 -28 13 -27 -11 0 -14 2 -14 10 3 7 16 8 14 4 -10 -4 -24 -3 -27 5
-15 8 10 10 11 8 2 -6 -24 -23 -18 -33 13 -6 17 -60 79 -120 140 -61 60 -99
101 -85 90 l25 -20 -19 22 c-10 13 -23 20 -28 17 -13 -8 -49 26 -41 39 3 5 2
7 -4 4 -6 -4 -31 16 -57 43 -25 28 -46 47 -46 43 0 -7 -140 135 -195 198 -53
60 -180 233 -216 292 l-34 57 -105 0 -105 -1 -49 -82z m1168 -883 c3 -7 -4
-14 -15 -17 -16 -4 -19 -2 -15 11 5 15 4 15 -8 0 -7 -10 -19 -18 -25 -18 -7 0
-9 -4 -6 -10 3 -5 -1 -10 -11 -10 -17 0 -12 10 24 48 6 7 12 18 12 23 0 12 38
-12 44 -27z"/>
<path d="M3716 4988 c5 -8 2 -9 -10 -5 -9 4 -15 3 -11 -2 3 -5 1 -11 -4 -13
-4 -1 -34 -41 -66 -88 -32 -47 -86 -121 -121 -165 -75 -97 -229 -257 -238
-248 -3 3 -6 1 -6 -5 0 -14 -70 -81 -85 -82 -6 0 -16 -9 -23 -20 -7 -12 -18
-18 -24 -14 -7 4 -8 3 -4 -5 5 -7 -5 -17 -28 -26 -19 -8 -38 -20 -42 -27 -5
-8 -1 -8 12 2 19 14 19 14 0 -8 -11 -12 -26 -20 -33 -17 -8 2 -11 0 -8 -5 3
-6 -1 -10 -9 -10 -8 0 -25 -10 -38 -22 -13 -13 -17 -18 -8 -12 35 25 43 25 20
0 -16 -18 -32 -26 -46 -23 -12 2 -21 -2 -21 -9 0 -7 5 -11 11 -7 6 3 -2 -8
-19 -25 -16 -16 -33 -28 -37 -25 -5 2 -8 -1 -8 -7 0 -7 -11 -25 -25 -42 -34
-41 -32 -59 16 -106 22 -23 42 -48 43 -56 2 -13 156 -184 156 -172 0 3 -14 21
-31 41 -17 19 -27 35 -21 35 5 0 17 -11 26 -25 9 -13 25 -33 37 -43 15 -15 17
-22 8 -27 -8 -6 -10 -4 -4 5 6 9 4 11 -4 5 -9 -5 -7 -13 10 -31 27 -29 33 -30
19 -4 -6 11 -9 20 -7 20 7 0 56 -67 59 -80 2 -8 11 -22 21 -32 10 -11 16 -26
13 -34 -3 -7 -1 -13 4 -11 6 1 20 -14 31 -33 12 -19 14 -26 5 -16 -9 11 -16
15 -16 9 0 -5 16 -27 35 -47 31 -34 40 -53 36 -79 -1 -5 3 -6 8 -3 8 5 19 -14
27 -46 1 -5 3 -11 4 -15 1 -5 2 -12 1 -16 -1 -5 3 -6 9 -2 9 6 14 -7 11 -27 0
-5 4 -8 10 -8 5 0 7 -4 4 -10 -3 -5 4 -23 16 -39 12 -17 23 -38 24 -48 4 -33
17 -73 25 -73 6 0 31 -67 35 -100 2 -8 12 -44 23 -80 12 -36 29 -105 38 -153
10 -50 21 -83 25 -75 26 49 393 1002 413 1074 13 49 41 168 61 264 19 96 50
225 67 287 l31 111 -48 79 c-144 235 -191 314 -231 395 l-45 88 -40 0 c-28 0
-38 -4 -33 -12z m-754 -1118 c23 -21 40 -42 37 -44 -3 -3 -25 15 -49 39 -55
56 -45 59 12 5z"/>
<path d="M2040 4256 c0 -2 8 -10 18 -17 15 -13 16 -12 3 4 -13 16 -21 21 -21
13z"/>
<path d="M2889 4174 c-7 -8 -26 -22 -43 -29 l-31 -14 29 4 c17 2 34 11 39 20
4 8 12 13 16 11 4 -3 8 1 8 9 0 19 -2 19 -18 -1z"/>
<path d="M2116 4168 c3 -5 9 -6 14 -3 4 3 10 0 12 -7 3 -8 6 -7 10 3 4 11 -1
15 -17 15 -13 0 -21 -4 -19 -8z"/>
<path d="M2157 4147 c-3 -8 3 -19 13 -25 14 -9 21 -8 32 5 11 14 10 15 -11 8
-15 -5 -21 -4 -17 3 3 6 2 13 -3 16 -5 3 -11 0 -14 -7z"/>
<path d="M2820 4109 c0 -6 -4 -7 -10 -4 -15 9 -12 -11 4 -24 10 -8 16 -8 23 1
21 27 21 34 2 35 -10 1 -19 -3 -19 -8z m12 -21 c-7 -7 -12 -8 -12 -2 0 6 3 14
7 17 3 4 9 5 12 2 2 -3 -1 -11 -7 -17z"/>
<path d="M2780 4080 c13 -8 13 -10 -2 -10 -9 0 -20 -5 -24 -11 -4 -8 1 -9 17
-4 20 7 22 6 12 -7 -7 -8 -10 -17 -7 -20 3 -3 -8 -10 -25 -16 -33 -12 -45 0
-30 28 5 11 2 16 -11 16 -10 0 -16 -6 -13 -13 3 -7 0 -13 -6 -13 -6 0 -11 5
-11 10 0 6 -5 10 -11 10 -8 0 -7 -6 2 -17 13 -15 11 -16 -16 -10 -59 14 -1
-11 70 -30 39 -10 76 -24 84 -31 7 -7 16 -10 19 -7 8 8 -30 34 -50 35 -24 0
-23 7 6 33 13 12 24 27 24 32 0 14 -18 35 -32 35 -6 0 -4 -5 4 -10z m-73 -66
c-3 -3 -12 -4 -19 -1 -8 3 -5 6 6 6 11 1 17 -2 13 -5z"/>
<path d="M2730 4029 c0 -5 5 -7 10 -4 6 3 10 8 10 11 0 2 -4 4 -10 4 -5 0 -10
-5 -10 -11z"/>
<path d="M2796 4015 c-3 -8 -1 -15 4 -15 6 0 10 7 10 15 0 8 -2 15 -4 15 -2 0
-6 -7 -10 -15z"/>
<path d="M2375 3970 c-14 -6 1 -9 55 -9 102 0 184 -6 198 -15 7 -4 21 -4 32
-1 11 4 20 2 20 -3 0 -5 18 -12 39 -16 22 -3 48 -9 58 -12 12 -5 15 -4 8 3
-15 16 -114 46 -129 40 -8 -3 -17 -2 -22 3 -13 12 -236 21 -259 10z"/>
<path d="M2280 3959 c-20 -6 -16 -8 18 -5 23 2 46 6 49 10 9 9 -37 6 -67 -5z"/>
<path d="M2845 3959 c-4 -6 -5 -11 -4 -12 2 -1 13 -10 25 -20 17 -14 21 -15
21 -2 0 8 -9 17 -19 21 -10 3 -16 10 -13 15 4 5 4 9 1 9 -3 0 -8 -5 -11 -11z"/>
<path d="M2027 3873 c-4 -3 -7 -11 -7 -17 0 -6 5 -5 12 2 6 6 9 14 7 17 -3 3
-9 2 -12 -2z"/>
<path d="M1923 3646 c-27 -37 -29 -45 -17 -61 13 -17 14 -17 14 -2 0 9 -6 17
-12 17 -9 1 -8 5 3 13 8 7 18 21 22 31 11 28 14 16 9 -35 -4 -45 -5 -47 -45
-56 -42 -10 -42 -10 21 -10 34 0 62 4 62 8 0 5 -7 6 -15 3 -12 -5 -15 2 -15
30 0 20 4 36 9 36 4 0 6 -11 3 -25 -2 -15 0 -25 7 -25 6 0 11 16 11 35 0 19
-5 35 -11 35 -6 0 -8 8 -4 19 11 37 -12 30 -42 -13z"/>
<path d="M3122 3650 c7 -10 14 -18 15 -16 6 6 -9 36 -18 36 -5 0 -4 -9 3 -20z"/>
<path d="M3045 3625 c2 -21 1 -35 -3 -31 -3 4 -19 -48 -33 -116 l-27 -123 77
-105 c43 -58 119 -167 170 -243 51 -76 108 -155 127 -176 72 -81 106 -212 144
-566 22 -202 32 -256 55 -311 8 -19 12 -40 10 -47 -3 -6 0 -25 5 -42 10 -29
10 -29 6 8 -3 20 -1 35 3 33 8 -5 79 227 101 329 18 83 70 356 80 420 5 33 16
103 25 155 9 52 16 102 16 110 0 8 7 51 14 95 8 44 19 116 25 160 7 44 16 82
20 85 5 3 1 14 -7 25 -15 19 -15 19 -8 -5 4 -14 4 -22 0 -18 -11 10 -85 -152
-207 -452 -55 -135 -102 -247 -104 -249 -2 -2 -5 2 -8 10 -32 107 -70 217 -78
226 -5 7 -7 17 -3 23 3 5 2 10 -3 10 -6 0 -8 10 -5 23 4 18 3 19 -7 7 -9 -12
-10 -9 -5 13 4 21 2 28 -7 25 -8 -3 -24 19 -41 56 -16 34 -35 73 -42 87 -8 14
-12 29 -8 33 3 3 1 6 -6 6 -7 0 -9 5 -6 10 4 6 10 8 15 5 5 -3 11 -1 14 3 7
12 -24 92 -36 92 -13 0 -10 -12 12 -45 11 -16 20 -34 20 -40 -1 -5 -8 2 -16
18 -8 15 -17 27 -20 27 -2 0 -2 -12 2 -27 5 -27 5 -27 -8 -6 -7 12 -26 46 -42
75 -53 99 -139 243 -160 268 -13 15 -14 19 -4 12 14 -12 16 -10 11 8 -3 13
-11 19 -19 16 -13 -5 -35 24 -41 54 -4 23 6 42 18 34 8 -4 7 -9 -2 -16 -11 -8
-10 -9 4 -4 9 3 17 1 17 -4 0 -6 -4 -10 -10 -10 -5 0 -10 -5 -10 -11 0 -5 5
-7 12 -3 8 5 9 2 5 -10 -4 -11 -3 -15 4 -11 6 4 8 13 5 21 -3 8 -1 14 4 14 9
0 14 -15 11 -33 -1 -5 4 -5 10 -1 8 5 10 2 6 -8 -6 -17 16 -19 30 -3 4 4 2 5
-5 1 -9 -6 -12 -2 -10 10 2 12 -2 18 -10 16 -7 -1 -12 5 -10 15 2 10 -3 18
-11 18 -8 0 -16 6 -19 14 -3 9 0 11 9 6 7 -5 0 9 -16 31 -16 21 -31 41 -32 43
-2 3 -1 -13 2 -34z m19 -11 c3 -8 2 -12 -4 -9 -6 3 -10 10 -10 16 0 14 7 11
14 -7z"/>
<path d="M2535 3639 c-359 -30 -319 -23 -442 -85 l-111 -56 -114 7 c-91 5
-117 4 -132 -8 -12 -9 -17 -20 -13 -31 5 -13 23 -16 94 -17 84 -1 86 -2 38
-10 -27 -5 -69 -7 -92 -4 -36 4 -43 2 -43 -13 0 -28 30 -63 66 -78 40 -17 213
-20 263 -5 25 8 38 7 50 -2 12 -10 14 -9 9 5 -8 21 34 33 63 18 11 -6 25 -9
32 -6 7 2 5 5 -5 5 -9 1 -20 6 -24 12 -5 9 1 10 20 5 16 -4 25 -3 22 2 -6 11
73 22 154 22 31 0 88 9 127 20 65 18 75 18 107 5 20 -9 36 -20 36 -26 0 -8 -4
-8 -12 -2 -27 21 -47 21 -69 2 -12 -10 -29 -19 -38 -19 -13 -1 -13 -2 2 -11
10 -6 25 -8 33 -5 8 3 14 1 14 -4 0 -26 -86 -1 -88 25 -1 14 -22 19 -22 5 0
-8 -12 -11 -35 -8 l-35 4 21 -22 c26 -28 13 -36 -35 -23 -25 7 -46 7 -64 0
l-27 -10 25 1 c14 0 65 -3 113 -6 66 -5 86 -3 81 5 -5 9 0 10 16 6 29 -8 63
10 56 29 -8 21 4 17 26 -8 14 -16 15 -23 6 -29 -7 -4 -9 -11 -5 -16 5 -4 11
-3 15 2 4 6 25 10 47 10 34 0 40 3 37 20 -2 16 -1 17 7 5 5 -8 7 -18 5 -22 -3
-4 2 -8 11 -8 10 0 13 -4 8 -12 -4 -7 -8 -26 -9 -41 -2 -25 -1 -26 12 -10 16
21 18 37 4 28 -5 -3 -10 -1 -10 4 0 6 4 11 9 11 17 0 21 -18 11 -45 -10 -26
-9 -27 17 -22 24 5 32 0 58 -36 16 -23 45 -59 64 -80 21 -23 27 -35 16 -31
-14 6 -16 4 -10 -6 6 -10 3 -12 -13 -8 -13 4 -20 2 -16 -3 3 -6 20 -8 37 -5
25 4 35 -1 58 -27 22 -25 25 -34 16 -46 -10 -12 -9 -14 6 -8 12 5 30 -1 48
-14 27 -19 238 -94 245 -87 5 6 -211 304 -314 433 -53 67 -128 161 -166 209
-67 86 -116 127 -146 124 -8 0 -60 -5 -115 -9z m109 -205 c6 -10 13 -21 16
-24 3 -3 6 -22 6 -44 1 -21 -2 -33 -6 -26 -6 9 -9 9 -15 0 -5 -8 -16 -1 -35
21 -24 29 -30 32 -44 20 -9 -8 -18 -12 -20 -10 -2 2 7 12 20 22 13 10 24 13
24 7 0 -5 7 -10 15 -10 8 0 15 -6 15 -14 0 -20 17 -29 26 -15 4 8 3 9 -4 5
-15 -9 -16 6 -1 21 8 8 7 17 -3 32 -8 12 -17 18 -21 15 -3 -3 -11 -3 -17 1 -9
6 -9 10 1 16 18 11 30 7 43 -17z m46 -81 c0 -21 -3 -24 -9 -14 -5 8 -7 20 -4
28 8 21 13 15 13 -14z m-207 6 l21 -12 -24 -9 c-26 -9 -47 3 -36 21 9 14 12
14 39 0z m297 -109 c0 -5 -5 -10 -11 -10 -5 0 -7 5 -4 10 3 6 8 10 11 10 2 0
4 -4 4 -10z"/>
<path d="M3160 3601 c0 -6 4 -13 10 -16 6 -3 7 1 4 9 -7 18 -14 21 -14 7z"/>
<path d="M1880 3581 c0 -5 5 -13 10 -16 6 -3 10 -2 10 4 0 5 -4 13 -10 16 -5
3 -10 2 -10 -4z"/>
<path d="M1775 3559 c-4 -6 -5 -12 -2 -15 2 -3 7 2 10 11 7 17 1 20 -8 4z"/>
<path d="M1101 3552 c-1 -14 27 -72 35 -72 2 0 -2 12 -9 28 -8 15 -17 34 -20
42 -4 10 -6 11 -6 2z"/>
<path d="M3151 3483 c3 -20 -2 -32 -16 -35 -10 -2 -12 -8 -6 -17 7 -11 13 -7
25 17 10 20 12 33 6 37 -6 4 -10 3 -9 -2z"/>
<path d="M3125 3470 c3 -5 8 -10 11 -10 2 0 4 5 4 10 0 6 -5 10 -11 10 -5 0
-7 -4 -4 -10z"/>
<path d="M1122 3430 c0 -19 2 -27 5 -17 2 9 2 25 0 35 -3 9 -5 1 -5 -18z"/>
<path d="M3160 3433 c0 -7 5 -15 12 -19 7 -5 5 -12 -8 -22 -16 -13 -17 -14 -1
-9 13 5 17 1 17 -16 0 -16 3 -18 9 -8 5 7 6 22 3 34 -4 14 -2 18 7 12 10 -6
11 -3 2 14 -14 25 -22 28 -15 4 5 -15 3 -15 -10 1 -9 11 -16 15 -16 9z"/>
<path d="M1143 3416 c3 -7 0 -19 -6 -26 -9 -10 -9 -11 1 -6 14 8 17 -10 3 -19
-6 -3 -4 -19 4 -39 8 -18 17 -57 20 -87 6 -52 20 -139 31 -187 3 -15 1 -21 -6
-17 -5 3 -10 2 -10 -4 0 -5 4 -11 10 -13 5 -1 14 -37 20 -78 6 -41 14 -86 16
-100 3 -14 7 -41 10 -60 60 -413 273 -1333 370 -1604 14 -38 22 -76 20 -83 -4
-9 -1 -11 6 -7 8 5 9 2 5 -9 -4 -10 -2 -17 4 -17 6 0 9 -7 5 -15 -3 -8 -1 -15
5 -15 6 0 7 -6 2 -12 -4 -7 -9 -22 -10 -33 -2 -16 -1 -17 6 -5 5 8 7 18 5 22
-3 4 -3 8 0 8 3 0 13 -17 21 -37 14 -34 14 -39 0 -49 -8 -6 -15 -17 -15 -25 0
-8 5 -5 14 7 19 26 31 12 29 -36 -1 -26 2 -39 10 -37 8 1 11 -10 10 -33 -2
-23 0 -29 5 -17 6 13 11 5 25 -34 20 -55 12 -84 -16 -60 -12 9 -16 8 -21 -5
-4 -11 -2 -15 7 -11 8 3 20 1 27 -3 17 -10 36 23 55 95 7 28 74 281 150 563
l137 512 -41 43 c-55 56 -97 142 -121 252 -22 100 -27 268 -10 325 6 19 11 91
10 160 0 149 10 176 112 311 l66 85 -31 121 -32 121 -81 6 c-75 6 -184 36
-209 56 -13 11 -26 2 -42 -27 -18 -31 -16 -41 2 -17 8 10 15 14 15 7 0 -7 -13
-26 -30 -43 -32 -33 -41 -51 -14 -29 21 17 46 21 41 6 -2 -7 -9 -12 -15 -12
-5 0 -14 -4 -19 -8 -4 -5 -3 -7 2 -5 10 3 15 -4 15 -23 0 -5 -5 -7 -12 -3 -7
4 -8 3 -4 -4 4 -6 -10 -44 -31 -84 -20 -40 -38 -79 -39 -86 -3 -18 -14 -28
-14 -14 0 7 -5 12 -10 12 -7 0 -8 -6 -2 -17 7 -11 2 -33 -15 -72 -14 -31 -28
-58 -31 -61 -4 -3 -8 -12 -10 -20 -1 -8 -7 -24 -12 -35 -5 -11 -16 -45 -26
-75 -9 -30 -19 -58 -23 -62 -3 -4 -44 88 -90 205 -46 117 -103 254 -127 306
-24 52 -44 100 -44 107 0 8 -5 14 -11 14 -5 0 -7 5 -4 10 3 6 1 10 -5 10 -7 0
-9 7 -6 16 3 8 2 13 -3 10 -5 -3 -12 1 -15 10 -3 8 -2 12 4 9 6 -3 10 -1 10 4
0 6 -7 11 -16 11 -12 0 -15 6 -11 21 7 25 -1 49 -15 49 -6 0 -8 -6 -5 -14z
m626 -138 c-5 -10 -14 -18 -19 -18 -5 0 -7 -6 -4 -14 4 -10 -1 -14 -14 -13
-18 1 -19 3 -5 24 8 12 12 27 8 33 -11 18 5 30 25 18 14 -9 16 -16 9 -30z"/>
<path d="M2510 3405 c-9 -10 -9 -15 -1 -15 6 0 11 4 11 9 0 5 8 12 18 14 14 4
14 5 1 6 -9 0 -22 -6 -29 -14z"/>
<path d="M2348 3378 c-3 -7 -27 -11 -64 -11 -55 1 -56 1 -19 -7 51 -10 102 -2
102 16 0 17 -14 19 -19 2z"/>
<path d="M3200 3358 c0 -4 4 -8 9 -8 6 0 12 4 15 8 3 5 -1 9 -9 9 -8 0 -15 -4
-15 -9z"/>
<path d="M2148 3352 c18 -12 -37 -33 -70 -25 -18 4 -20 3 -8 -6 13 -9 13 -11
-2 -11 -9 0 -19 6 -21 13 -4 9 -8 9 -15 -2 -5 -7 -15 -11 -21 -7 -7 5 -9 1 -5
-8 6 -16 24 -22 24 -8 0 4 23 7 51 8 30 0 54 6 59 14 4 7 12 10 18 6 6 -3 9 1
8 11 -2 9 -9 19 -17 21 -11 3 -12 2 -1 -6z"/>
<path d="M2200 3340 l-25 -8 28 -1 c15 -1 27 4 27 9 0 6 -1 10 -2 9 -2 -1 -14
-5 -28 -9z"/>
<path d="M2240 3340 c0 -5 9 -10 21 -10 11 0 17 5 14 10 -3 6 -13 10 -21 10
-8 0 -14 -4 -14 -10z"/>
<path d="M3226 3334 c-4 -9 -3 -21 2 -26 12 -12 23 15 12 31 -5 9 -9 8 -14 -5z"/>
<path d="M3190 3331 c0 -6 4 -12 8 -15 5 -3 9 1 9 9 0 8 -4 15 -9 15 -4 0 -8
-4 -8 -9z"/>
<path d="M1860 3316 c0 -2 9 -6 20 -9 11 -3 18 -1 14 4 -5 9 -34 13 -34 5z"/>
<path d="M1916 3309 c2 -4 22 -9 44 -11 24 -2 36 0 30 6 -10 10 -80 15 -74 5z"/>
<path d="M2675 3290 c3 -5 8 -10 11 -10 2 0 4 5 4 10 0 6 -5 10 -11 10 -5 0
-7 -4 -4 -10z"/>
<path d="M3211 3293 c-1 -13 16 -26 37 -29 6 -1 10 2 6 7 -3 5 -11 9 -19 9 -7
0 -16 6 -18 13 -4 9 -6 9 -6 0z"/>
<path d="M2620 3271 c0 -5 5 -13 10 -16 6 -3 10 -2 10 4 0 5 -4 13 -10 16 -5
3 -10 2 -10 -4z"/>
<path d="M3271 3254 c0 -11 3 -14 6 -6 3 7 2 16 -1 19 -3 4 -6 -2 -5 -13z"/>
<path d="M2660 3239 c0 -5 -6 -7 -12 -3 -14 8 -14 9 29 -48 l20 -26 0 29 c0
16 -4 29 -9 29 -4 0 -8 -6 -8 -12 0 -9 -3 -8 -9 2 -13 19 -5 30 19 25 12 -2
18 0 15 6 -8 12 -45 12 -45 -2z"/>
<path d="M3256 3220 c21 -45 21 -45 37 -29 14 15 12 39 -4 39 -4 0 -6 -7 -3
-15 4 -8 1 -15 -5 -15 -6 0 -11 4 -11 8 0 5 -7 17 -15 28 -13 15 -13 13 1 -16z"/>
<path d="M2717 3213 c-4 -3 -7 -11 -7 -17 0 -6 5 -5 12 2 6 6 9 14 7 17 -3 3
-9 2 -12 -2z"/>
<path d="M2770 3199 c0 -7 9 -9 21 -6 13 3 19 1 16 -6 -2 -7 -17 -15 -33 -18
-16 -4 -24 -8 -19 -9 6 -1 18 -3 28 -5 9 -2 17 0 17 5 0 17 35 2 38 -16 2 -10
9 -23 14 -29 18 -17 -3 37 -25 67 -21 28 -57 38 -57 17z"/>
<path d="M1660 3176 c0 -8 4 -17 9 -20 5 -4 7 3 4 14 -6 23 -13 26 -13 6z"/>
<path d="M2325 3166 c-43 -19 -195 -160 -260 -241 -83 -104 -105 -155 -104
-243 0 -78 8 -94 11 -24 1 23 6 42 12 42 6 0 4 5 -4 10 -9 6 -11 13 -5 18 6 4
10 13 11 20 2 28 4 33 14 27 5 -3 7 -12 3 -20 -8 -23 5 -18 18 6 8 15 8 19 0
15 -6 -4 -11 -4 -11 -1 0 8 14 24 74 90 42 46 52 53 68 44 11 -6 22 -8 25 -5
3 3 -2 8 -11 12 -15 6 -15 8 4 21 11 8 25 11 32 7 7 -4 8 -3 4 4 -4 7 -1 12 9
12 8 0 18 -7 21 -15 4 -8 10 -15 15 -15 6 0 5 9 -1 20 -10 18 -8 20 27 20 21
0 54 -5 73 -11 19 -5 45 -12 57 -15 12 -2 60 -22 105 -43 46 -21 105 -48 131
-60 29 -13 45 -26 41 -33 -4 -7 -3 -8 5 -4 7 4 31 -1 54 -12 23 -11 61 -25 85
-32 23 -7 42 -17 42 -21 0 -4 8 -5 18 -3 9 3 35 1 57 -5 40 -9 39 -9 -22 -10
-40 -1 -63 3 -66 12 -4 7 -8 3 -12 -10 -4 -13 -11 -23 -16 -23 -4 0 -108 25
-231 56 -123 31 -264 61 -315 67 -88 10 -93 10 -140 -14 -46 -24 -113 -97
-113 -123 0 -10 10 -11 40 -6 49 9 99 0 210 -38 163 -56 261 -98 268 -115 2
-4 8 -5 13 -1 5 3 9 0 9 -7 0 -7 3 -9 6 -6 4 4 19 -2 33 -12 14 -10 29 -19 34
-20 11 -1 223 -141 214 -141 -4 0 -93 43 -197 95 -267 133 -495 225 -561 225
-61 0 -112 -77 -145 -217 -16 -66 -15 -150 2 -258 9 -61 17 -57 11 5 -2 30 0
66 4 79 12 31 2 41 -10 10 -9 -23 -10 -23 -10 -2 -1 12 4 25 9 28 6 4 8 15 5
25 -3 10 -1 21 4 24 6 4 8 13 4 21 -3 9 0 22 7 30 6 8 9 19 6 24 -8 12 17 75
32 85 14 8 194 -173 185 -187 -4 -6 0 -8 11 -4 10 4 40 -7 77 -27 41 -23 55
-35 45 -39 -9 -4 -13 -15 -11 -27 2 -11 0 -20 -6 -20 -5 0 -9 -7 -9 -16 0 -9
-5 -14 -11 -12 -6 2 -10 7 -10 11 1 4 1 14 1 23 0 8 5 12 10 9 6 -3 10 -1 10
4 0 6 -7 11 -16 11 -12 0 -15 7 -10 28 4 23 3 23 -10 -7 -18 -41 -31 -34 -16
8 10 28 9 31 -9 31 -10 0 -19 -5 -19 -11 0 -5 5 -7 10 -4 6 3 10 0 10 -8 0 -7
-7 -14 -15 -14 -8 0 -15 6 -15 14 0 7 -5 13 -11 13 -6 0 -8 -7 -5 -16 3 -8 2
-13 -3 -10 -5 3 -7 24 -6 46 2 42 -3 48 -24 28 -10 -11 -11 -9 -6 7 6 16 5 17
-4 5 -13 -18 -31 -3 -34 28 0 11 -5 19 -9 16 -7 -4 -2 -27 11 -49 3 -5 6 -14
6 -20 0 -5 10 -9 23 -9 13 1 22 -4 22 -13 0 -9 -5 -11 -12 -7 -16 9 9 -25 31
-43 11 -10 18 -10 28 -1 11 8 12 7 7 -6 -4 -11 4 -27 25 -46 32 -31 37 -33 86
-31 17 1 37 -4 45 -10 11 -8 5 -9 -25 -5 -36 5 -38 4 -12 -5 21 -8 35 -7 60 4
18 8 40 17 50 19 10 1 18 8 17 13 -2 14 -38 26 -45 15 -4 -6 6 -10 21 -10 37
0 28 -6 -21 -14 -29 -5 -36 -4 -25 3 13 10 13 11 0 11 -12 1 -11 4 4 15 18 13
18 14 -2 12 -11 0 -20 -4 -20 -7 2 -23 -4 -40 -12 -35 -5 3 -7 12 -3 20 3 8 0
15 -6 15 -6 0 -11 -7 -11 -15 0 -8 -9 -15 -20 -15 -11 0 -20 5 -20 11 0 5 4 8
9 5 5 -3 11 1 14 8 3 8 1 17 -6 20 -7 4 1 4 16 1 19 -4 26 -2 22 5 -3 5 -16
11 -28 11 -18 1 -19 2 -4 6 10 3 26 1 35 -3 9 -4 22 -8 27 -10 6 -1 44 -15 85
-29 41 -15 86 -28 100 -30 71 -6 67 -4 46 -16 -10 -6 -21 -7 -25 -3 -3 5 -24
10 -46 11 -29 1 -34 -1 -20 -6 l20 -8 -20 -6 c-11 -4 -2 -4 20 -2 l40 4 -60
-28 c-42 -21 -64 -26 -72 -19 -7 6 -21 7 -30 3 -16 -7 -15 -9 7 -14 16 -5 28
-17 34 -36 4 -17 16 -48 26 -71 10 -23 15 -46 10 -53 -5 -9 -10 -10 -14 -2 -4
6 -4 16 -1 21 3 6 1 10 -4 10 -6 0 -11 8 -11 18 0 19 -18 42 -33 42 -4 0 -5
-10 -1 -22 6 -20 5 -21 -10 -9 -13 11 -14 17 -5 28 7 8 18 12 26 9 8 -3 13 2
13 12 0 15 -8 18 -38 16 -27 -1 -39 2 -39 12 0 9 10 11 31 8 l31 -6 -29 16
c-41 23 -59 21 -52 -6 l6 -23 -11 23 c-7 12 -16 22 -21 22 -14 0 24 -49 103
-134 39 -42 74 -74 78 -71 3 3 -1 10 -9 15 -8 6 -10 10 -4 10 16 0 35 -25 32
-41 -2 -7 7 -18 20 -24 13 -7 35 -23 50 -37 28 -25 81 -61 95 -64 4 -1 13 -2
20 -4 6 -1 -1 -6 -18 -11 -16 -5 -39 -6 -50 -2 l-20 6 20 8 c11 4 14 8 7 8 -7
1 -22 -4 -33 -9 -15 -8 -19 -7 -19 5 0 9 9 15 23 15 20 1 20 2 4 11 -9 5 -22
7 -28 4 -6 -4 -18 0 -28 9 -10 9 -31 19 -47 22 -15 3 -32 8 -37 11 -6 3 -7 1
-3 -5 4 -7 14 -12 22 -12 9 0 12 -5 8 -12 -4 -7 -3 -8 4 -4 7 4 12 1 12 -6 0
-9 3 -9 10 2 8 13 11 12 24 -5 9 -11 16 -25 16 -31 0 -16 30 -40 30 -25 0 6 5
11 11 11 5 0 8 -4 5 -9 -3 -4 12 -7 34 -6 43 3 38 10 79 -115 16 -49 19 -72
12 -95 l-10 -30 0 30 c0 17 -4 46 -9 65 -8 29 -9 24 -6 -35 2 -46 0 -65 -6
-55 -8 12 -10 12 -10 -4 0 -12 5 -16 16 -12 9 3 20 6 25 6 5 0 9 10 10 23 1
18 2 17 10 -8 5 -16 8 -45 5 -63 -3 -18 -1 -30 3 -27 5 2 11 -14 15 -37 5 -29
3 -44 -6 -50 -10 -6 -10 -8 -1 -8 10 0 13 -45 12 -187 l0 -188 -26 -28 c-20
-20 -24 -30 -15 -39 8 -8 13 -4 18 16 3 14 13 30 22 35 13 7 19 0 33 -37 9
-26 20 -56 25 -66 5 -14 4 -17 -4 -12 -7 4 -12 2 -12 -3 0 -6 5 -11 11 -11 7
0 9 -10 5 -27 -4 -17 -3 -23 2 -16 7 10 11 10 23 0 19 -15 72 -97 67 -103 -2
-2 -16 3 -31 11 -15 7 -29 10 -32 5 -8 -13 21 -31 45 -27 18 3 41 -14 98 -72
41 -42 74 -83 73 -91 -1 -12 0 -12 7 -1 7 10 14 11 31 2 25 -14 28 -26 4 -17
-10 4 -14 3 -9 -1 4 -4 17 -9 29 -10 12 0 40 -8 62 -17 54 -21 93 -20 140 4
21 11 41 18 43 15 3 -2 -3 -7 -12 -11 -20 -8 -21 -20 0 -28 9 -3 12 -2 9 5 -4
5 -1 16 5 24 7 8 9 15 4 15 -5 0 16 25 46 55 49 49 55 53 67 37 11 -15 12 -14
4 8 -7 20 -3 32 19 60 15 19 39 56 54 83 16 26 33 44 39 40 6 -4 8 2 5 15 -4
13 -1 25 8 30 19 11 20 59 1 121 -9 30 -24 111 -32 180 -20 164 -95 609 -139
831 -20 96 -47 279 -61 405 -26 234 -48 374 -66 423 -26 69 -104 113 -306 173
-199 59 -249 78 -428 162 -214 100 -275 117 -330 93z m-45 -946 c0 -11 -4 -20
-9 -20 -5 0 -7 9 -4 20 3 11 7 20 9 20 2 0 4 -9 4 -20z m157 -186 c-3 -3 -12
-4 -19 -1 -8 3 -5 6 6 6 11 1 17 -2 13 -5z m39 -49 c-2 -7 0 -18 5 -24 6 -8 5
-8 -3 -1 -14 11 -19 52 -6 44 5 -4 7 -12 4 -19z"/>
<path d="M2715 3149 c3 -12 12 -30 22 -41 15 -16 18 -17 25 -3 10 18 38 20 38
3 0 -6 2 -9 5 -6 10 10 -8 39 -21 34 -7 -3 -16 -1 -19 4 -4 6 -11 10 -18 10
-8 0 -8 -3 1 -12 20 -20 13 -32 -8 -13 -11 10 -17 21 -15 26 3 4 1 10 -4 14
-6 3 -8 -4 -6 -16z"/>
<path d="M3285 3160 c3 -5 8 -10 11 -10 2 0 4 5 4 10 0 6 -5 10 -11 10 -5 0
-7 -4 -4 -10z"/>
<path d="M1647 3144 c-11 -12 -8 -26 4 -18 7 4 10 2 8 -5 -3 -7 -8 -12 -13
-11 -11 2 -26 -21 -26 -40 0 -13 1 -13 10 0 5 8 10 11 10 5 0 -5 7 3 15 19 14
26 8 65 -8 50z"/>
<path d="M2810 3140 c0 -5 5 -10 10 -10 6 0 10 5 10 10 0 6 -4 10 -10 10 -5 0
-10 -4 -10 -10z"/>
<path d="M2781 3098 c-1 -9 -6 -18 -11 -20 -6 -2 -2 -8 9 -15 16 -10 22 -9 33
4 9 12 10 15 0 9 -8 -5 -15 1 -21 16 -7 16 -10 18 -10 6z"/>
<path d="M2870 3100 c0 -5 5 -10 10 -10 6 0 10 5 10 10 0 6 -4 10 -10 10 -5 0
-10 -4 -10 -10z"/>
<path d="M3345 3079 c-4 -6 -5 -12 -2 -15 2 -3 7 2 10 11 7 17 1 20 -8 4z"/>
<path d="M3356 3055 c-3 -10 -3 -22 3 -28 12 -12 20 4 11 27 -6 19 -7 19 -14
1z"/>
<path d="M2915 3041 c-4 -13 -12 -18 -23 -15 -14 5 -14 3 2 -10 10 -8 23 -13
29 -9 5 3 14 -1 19 -8 7 -11 11 -11 15 -1 2 6 10 9 15 6 7 -4 8 -2 4 4 -4 6
-13 9 -20 6 -7 -3 -19 3 -27 12 -12 16 -12 17 5 11 16 -6 17 -5 6 8 -16 19
-17 19 -25 -4z"/>
<path d="M1605 3029 c-4 -12 -3 -25 2 -29 4 -5 9 4 10 21 3 34 -3 38 -12 8z"/>
<path d="M2818 3043 c7 -3 16 -2 19 1 4 3 -2 6 -13 5 -11 0 -14 -3 -6 -6z"/>
<path d="M2860 3040 c12 -8 12 -10 1 -10 -8 0 -12 -3 -8 -6 3 -3 16 1 29 10
l22 16 -29 0 c-23 0 -27 -3 -15 -10z"/>
<path d="M3366 3002 c-3 -5 1 -9 9 -9 8 0 15 4 15 9 0 4 -4 8 -9 8 -6 0 -12
-4 -15 -8z"/>
<path d="M2276 2951 c5 -6 29 -13 53 -15 56 -6 40 9 -19 18 -31 5 -42 4 -34
-3z"/>
<path d="M3396 2937 c3 -10 9 -15 12 -12 3 3 0 11 -7 18 -10 9 -11 8 -5 -6z"/>
<path d="M1566 2925 c-9 -26 -7 -32 5 -12 6 10 9 21 6 23 -2 3 -7 -2 -11 -11z"/>
<path d="M2217 2933 c-7 -12 40 -40 50 -30 3 4 -1 7 -10 7 -9 0 -20 7 -25 16
-5 9 -12 12 -15 7z"/>
<path d="M2385 2920 c-4 -6 6 -10 22 -10 15 0 39 -3 53 -5 22 -5 21 -3 -5 9
-35 18 -61 20 -70 6z"/>
<path d="M2310 2909 c12 -9 11 -10 -8 -6 -12 3 -20 1 -16 -4 3 -5 -2 -9 -10
-9 -9 0 -16 -4 -16 -8 0 -5 22 -1 49 7 27 9 48 16 48 17 -1 1 -15 4 -32 8 -23
5 -27 4 -15 -5z"/>
<path d="M2200 2900 c12 -8 10 -10 -9 -10 -13 0 -22 -3 -18 -6 3 -4 18 -3 32
0 27 7 25 26 -3 26 -15 0 -15 -2 -2 -10z"/>
<path d="M2125 2890 c-3 -5 -3 -10 0 -10 3 0 0 -6 -7 -14 -7 -8 -16 -12 -20
-9 -10 5 -58 -46 -58 -61 0 -6 14 5 32 24 17 19 34 34 37 34 16 -4 31 10 26
24 -4 11 -2 12 8 4 10 -9 14 -8 14 3 0 17 -23 20 -32 5z"/>
<path d="M2360 2890 c-8 -5 -26 -10 -40 -11 -24 -1 -24 -1 5 -10 16 -4 41 -6
55 -3 20 5 22 3 10 -6 -12 -9 -11 -10 7 -5 12 3 24 1 28 -5 3 -5 16 -10 28 -9
21 1 21 1 2 8 -11 4 -35 14 -54 23 -29 13 -32 17 -15 21 11 3 13 5 4 6 -8 0
-22 -4 -30 -9z"/>
<path d="M2487 2886 c-6 -14 0 -26 13 -26 3 0 6 9 7 20 2 23 -12 27 -20 6z"/>
<path d="M2542 2843 c-20 -14 -25 -14 -32 -2 -7 10 -12 11 -21 2 -9 -9 -1 -14
32 -23 24 -7 55 -16 69 -21 30 -10 56 -7 72 9 9 9 5 10 -18 4 -16 -5 -37 -6
-47 -4 -18 4 -18 4 0 25 17 20 17 20 0 14 -10 -4 -21 -7 -23 -7 -3 0 -2 -4 1
-10 3 -5 2 -10 -4 -10 -19 0 -21 19 -4 29 10 6 14 10 8 10 -5 0 -20 -7 -33
-16z"/>
<path d="M2618 2823 c7 -3 16 -2 19 1 4 3 -2 6 -13 5 -11 0 -14 -3 -6 -6z"/>
<path d="M2664 2778 c-4 -7 -3 -8 4 -4 7 4 22 0 34 -8 28 -20 58 -20 58 -1 0
8 -5 15 -11 15 -5 0 -7 -4 -4 -10 9 -14 -5 -12 -35 5 -31 18 -37 18 -46 3z"/>
<path d="M2780 2750 c-8 -5 -10 -10 -5 -11 6 0 17 -2 26 -4 9 -1 23 2 30 7 11
8 11 9 -2 5 -9 -3 -21 -1 -25 3 -5 5 -15 5 -24 0z"/>
<path d="M2034 2481 c9 -10 14 -24 11 -32 -3 -8 11 -34 30 -58 19 -24 35 -39
35 -34 0 6 -7 16 -15 23 -8 7 -15 16 -15 21 0 5 7 6 15 3 18 -7 19 0 5 27 -6
10 -16 19 -23 19 -7 0 -6 -4 3 -10 11 -7 12 -12 3 -21 -8 -8 -14 -6 -22 9 -7
13 -7 23 -1 27 10 6 -18 45 -34 45 -5 0 -2 -8 8 -19z"/>
<path d="M2010 2470 c0 -5 5 -10 10 -10 6 0 10 5 10 10 0 6 -4 10 -10 10 -5 0
-10 -4 -10 -10z"/>
<path d="M1994 2424 c0 -12 3 -20 5 -18 2 2 14 -11 27 -29 20 -29 21 -34 6
-49 -8 -10 -10 -18 -5 -18 27 0 34 28 16 64 -9 20 -21 36 -26 36 -4 0 -6 8 -3
18 4 12 1 19 -8 19 -8 0 -13 -10 -12 -23z"/>
<path d="M2005 2370 c4 -14 2 -20 -6 -18 -7 2 -14 -5 -15 -15 -1 -13 -1 -13 3
-2 3 12 8 13 18 5 19 -15 29 4 15 30 -14 26 -23 26 -15 0z"/>
<path d="M2143 2375 c0 -8 4 -12 9 -9 5 3 6 10 3 15 -9 13 -12 11 -12 -6z"/>
<path d="M2055 2310 c-18 -20 -18 -21 0 -14 14 6 16 4 10 -7 -7 -11 -6 -12 6
-2 13 10 19 8 37 -16 16 -23 18 -30 8 -34 -8 -3 -18 -1 -23 4 -6 6 -9 2 -8
-10 1 -12 5 -24 10 -28 4 -5 5 -2 1 5 -4 6 -3 12 3 12 5 0 15 -8 20 -17 6 -10
11 -13 11 -7 0 5 -5 15 -12 22 -9 9 -8 12 5 12 9 0 17 4 17 8 0 17 -53 71 -63
65 -6 -4 -8 0 -4 10 8 22 4 21 -18 -3z"/>
<path d="M2215 2310 c-3 -5 -2 -10 4 -10 5 0 13 5 16 10 3 6 2 10 -4 10 -5 0
-13 -4 -16 -10z"/>
<path d="M1988 2277 c-6 -82 -5 -99 2 -87 5 8 6 18 4 22 -11 17 8 68 23 68 19
0 9 13 -12 16 -9 1 -16 -7 -17 -19z"/>
<path d="M2300 2270 c0 -5 5 -10 11 -10 5 0 7 5 4 10 -3 6 -8 10 -11 10 -2 0
-4 -4 -4 -10z"/>
<path d="M2151 2203 c7 -12 15 -20 18 -17 3 2 -3 12 -13 22 -17 16 -18 16 -5
-5z"/>
<path d="M2176 2207 c3 -10 9 -15 12 -12 3 3 0 11 -7 18 -10 9 -11 8 -5 -6z"/>
<path d="M1984 2153 c5 -16 3 -23 -5 -23 -10 0 -10 -3 -2 -11 6 -6 9 -18 6
-27 -4 -9 -2 -13 4 -9 12 8 10 73 -2 85 -4 4 -4 -3 -1 -15z"/>
<path d="M2166 2155 c-9 -26 -7 -32 5 -12 6 10 9 21 6 23 -2 3 -7 -2 -11 -11z"/>
<path d="M2450 2150 l-35 -8 40 1 c31 1 40 -2 39 -14 -1 -12 6 -14 25 -11 17
3 21 7 11 10 -8 3 -19 11 -23 18 -4 8 -11 13 -15 13 -4 -1 -23 -5 -42 -9z"/>
<path d="M2018 2113 c7 -3 16 -2 19 1 4 3 -2 6 -13 5 -11 0 -14 -3 -6 -6z"/>
<path d="M2090 2111 c0 -7 -5 -9 -12 -5 -8 5 -9 2 -5 -10 4 -10 7 -23 8 -29 0
-7 5 1 10 17 4 17 6 32 4 35 -3 2 -5 -1 -5 -8z"/>
<path d="M2133 2113 c-15 -5 -17 -71 -4 -91 6 -10 10 -7 15 13 4 15 5 30 1 33
-3 3 -5 -3 -5 -13 0 -10 -3 -16 -6 -12 -4 3 -3 18 0 34 6 21 9 24 17 12 7 -12
9 -11 9 3 0 20 -10 27 -27 21z"/>
<path d="M2102 2070 c0 -14 2 -19 5 -12 2 6 2 18 0 25 -3 6 -5 1 -5 -13z"/>
<path d="M2015 2030 c10 -11 15 -20 12 -20 -4 0 1 -9 10 -20 19 -22 33 -26 33
-9 0 5 -4 8 -9 4 -9 -5 -27 32 -23 48 1 5 -2 6 -8 2 -5 -3 -10 -1 -10 4 0 6
-5 11 -12 11 -6 0 -3 -9 7 -20z"/>
<path d="M2072 2037 c14 -11 16 -20 7 -51 -6 -22 -14 -34 -21 -30 -7 4 -8 2
-4 -5 4 -6 12 -9 17 -6 5 4 9 0 9 -7 0 -10 2 -10 9 1 5 8 7 20 4 27 -3 8 0 27
5 44 6 16 7 30 2 30 -4 0 -17 3 -27 6 -17 5 -17 5 -1 -9z"/>
<path d="M2056 2017 c3 -10 9 -15 12 -12 3 3 0 11 -7 18 -10 9 -11 8 -5 -6z"/>
<path d="M2105 2001 c-4 -13 -4 -25 -1 -28 3 -4 6 2 6 13 0 16 2 17 10 4 5 -8
10 -10 10 -5 0 6 -4 16 -9 24 -7 11 -10 9 -16 -8z"/>
<path d="M2092 1921 c-10 -6 -10 -10 2 -20 12 -10 15 -9 13 8 -1 12 -1 21 -2
21 0 0 -6 -4 -13 -9z"/>
<path d="M2522 1775 c0 -16 2 -22 5 -12 2 9 2 23 0 30 -3 6 -5 -1 -5 -18z"/>
<path d="M2542 1738 c-7 -19 -7 -26 0 -22 7 4 8 -5 4 -27 -5 -27 -5 -30 4 -17
6 10 10 30 8 45 -2 18 2 28 11 28 8 0 16 5 18 12 9 26 -35 8 -45 -19z"/>
<path d="M2724 1691 c3 -17 -1 -25 -15 -28 -10 -3 -19 -10 -19 -15 0 -6 9 -8
20 -5 11 3 23 0 27 -5 3 -6 2 -8 -4 -5 -6 4 -9 -10 -9 -32 1 -22 4 -37 7 -35
13 8 19 67 8 80 -6 7 -9 17 -6 21 2 4 0 17 -4 28 -8 18 -9 17 -5 -4z"/>
<path d="M2551 1584 c0 -11 3 -14 6 -6 3 7 2 16 -1 19 -3 4 -6 -2 -5 -13z"/>
<path d="M2726 1514 c-4 -14 -5 -28 -3 -31 3 -2 8 8 11 23 4 14 5 28 3 31 -3
2 -8 -8 -11 -23z"/>
<path d="M2576 1435 c2 -11 4 -23 4 -27 0 -15 20 -8 20 7 0 8 7 15 16 15 17 0
14 22 -4 28 -7 2 -12 -3 -12 -12 0 -19 -17 -21 -23 -3 -2 6 -3 3 -1 -8z"/>
<path d="M2780 1435 c0 -8 5 -15 10 -15 6 0 10 7 10 15 0 8 -4 15 -10 15 -5 0
-10 -7 -10 -15z"/>
<path d="M2631 1404 c0 -11 3 -14 6 -6 3 7 2 16 -1 19 -3 4 -6 -2 -5 -13z"/>
<path d="M2745 1410 c-3 -5 1 -10 9 -10 9 0 16 5 16 10 0 6 -4 10 -9 10 -6 0
-13 -4 -16 -10z"/>
<path d="M2614 1374 c2 -16 1 -22 -1 -14 -10 31 -26 36 -17 5 4 -16 8 -48 7
-70 0 -22 2 -31 4 -21 4 13 7 15 13 7 4 -7 6 15 6 48 -1 33 -5 63 -9 67 -4 4
-5 -6 -3 -22z"/>
<path d="M2805 1340 c-3 -5 -1 -10 4 -10 6 0 11 5 11 10 0 6 -2 10 -4 10 -3 0
-8 -4 -11 -10z"/>
<path d="M2618 1196 c6 -72 17 -76 17 -7 0 35 -4 58 -11 58 -7 0 -9 -18 -6
-51z"/>
<path d="M2802 1165 c0 -16 2 -22 5 -12 2 9 2 23 0 30 -3 6 -5 -1 -5 -18z"/>
<path d="M2639 1099 c-3 -15 0 -38 7 -50 7 -13 13 -32 14 -41 0 -10 5 -18 10
-18 11 0 3 47 -10 65 -5 6 -10 24 -12 40 l-3 30 -6 -26z"/>
<path d="M2684 1105 c-4 -11 -9 -24 -12 -29 -3 -5 0 -6 5 -3 15 9 36 -18 30
-40 -3 -15 -6 -14 -15 7 -10 24 -11 24 -11 3 -1 -12 3 -25 9 -28 6 -4 4 -17
-5 -35 -15 -29 -11 -60 7 -60 5 0 6 -5 2 -12 -5 -7 -3 -8 5 -4 9 6 8 13 -6 28
-13 15 -15 22 -5 25 6 3 12 14 12 26 0 15 3 18 8 10 14 -22 11 53 -3 94 -12
33 -14 35 -21 18z"/>
<path d="M2811 1054 c0 -11 3 -14 6 -6 3 7 2 16 -1 19 -3 4 -6 -2 -5 -13z"/>
<path d="M1656 961 c-4 -7 -5 -15 -2 -18 9 -9 19 4 14 18 -4 11 -6 11 -12 0z"/>
<path d="M2712 899 c-19 -30 -8 -34 12 -4 9 14 13 25 9 25 -5 0 -14 -9 -21
-21z"/>
<path d="M1680 890 c0 -5 5 -10 11 -10 5 0 7 5 4 10 -3 6 -8 10 -11 10 -2 0
-4 -4 -4 -10z"/>
<path d="M2821 882 c-14 -27 -14 -53 0 -28 9 14 13 16 20 5 4 -7 11 -10 14 -7
4 4 0 16 -8 28 -15 22 -15 22 -26 2z"/>
<path d="M1670 846 c0 -8 5 -18 10 -21 6 -3 10 3 10 14 0 12 -4 21 -10 21 -5
0 -10 -6 -10 -14z"/>
<path d="M2720 846 c0 -9 5 -16 10 -16 6 0 10 4 10 9 0 6 -4 13 -10 16 -5 3
-10 -1 -10 -9z"/>
<path d="M2754 805 c0 -19 1 -35 3 -35 9 0 22 41 17 54 -10 27 -20 18 -20 -19z"/>
<path d="M2788 825 c5 -11 7 -26 4 -34 -3 -8 0 -11 7 -7 15 10 14 19 -5 42
-15 19 -15 19 -6 -1z"/>
<path d="M2735 810 c3 -5 8 -10 11 -10 2 0 4 5 4 10 0 6 -5 10 -11 10 -5 0 -7
-4 -4 -10z"/>
<path d="M1690 794 c0 -12 7 -37 15 -55 l14 -34 0 30 c0 17 -6 41 -14 55 -14
24 -14 24 -15 4z"/>
<path d="M1730 740 c0 -16 4 -30 8 -30 5 0 7 14 4 30 -2 17 -6 30 -8 30 -2 0
-4 -13 -4 -30z"/>
<path d="M2785 750 c-3 -5 -1 -18 5 -27 10 -16 10 -15 5 4 -4 15 -1 23 12 26
16 4 16 5 1 6 -9 0 -20 -3 -23 -9z"/>
<path d="M2850 720 c0 -5 9 -10 21 -10 11 0 17 5 14 10 -3 6 -13 10 -21 10 -8
0 -14 -4 -14 -10z"/>
<path d="M2900 720 c0 -5 5 -10 10 -10 6 0 10 -7 10 -16 0 -8 5 -12 10 -9 7 4
7 13 0 26 -11 20 -30 26 -30 9z"/>
<path d="M3664 694 c-2 -20 0 -21 12 -9 17 17 18 32 2 32 -7 0 -14 -11 -14
-23z"/>
<path d="M2810 697 c0 -7 9 -20 20 -30 11 -9 20 -13 20 -9 0 5 7 9 15 9 10 0
13 -6 9 -19 -6 -19 10 -25 21 -8 10 16 -16 42 -37 37 -13 -4 -18 0 -18 14 0
10 -7 19 -15 19 -8 0 -15 -6 -15 -13z"/>
<path d="M3640 662 c0 -13 -4 -21 -8 -18 -4 2 -13 -4 -20 -15 -7 -11 -8 -19
-2 -19 5 0 10 5 10 11 0 6 7 8 15 5 20 -7 30 17 16 41 -9 16 -10 16 -11 -5z"/>
<path d="M1733 653 c-17 -6 -16 -48 1 -62 11 -9 15 -6 18 14 5 26 -6 35 -15
13 -4 -8 -6 -7 -6 4 -1 9 5 18 12 21 6 2 10 7 7 9 -3 3 -11 3 -17 1z"/>
<path d="M2910 605 c-10 -12 -16 -13 -29 -3 -13 10 -13 9 1 -7 15 -16 19 -17
35 -4 17 13 17 13 1 -11 -15 -25 -15 -27 4 -42 11 -9 26 -14 32 -12 6 2 12 -5
13 -17 2 -24 10 -35 19 -26 3 3 2 12 -2 19 -5 7 -9 19 -10 25 -4 21 -32 45
-37 30 -2 -6 -8 -9 -12 -5 -4 4 -2 14 5 23 7 9 15 13 18 10 3 -3 11 0 19 6 10
9 13 7 13 -8 0 -11 7 -34 16 -51 18 -38 11 -74 -14 -65 -14 5 -15 4 -4 -8 12
-12 17 -10 35 12 12 15 29 29 37 32 9 4 5 6 -9 4 -13 -1 -26 4 -29 12 -3 10 2
12 21 7 43 -10 40 11 -5 45 -24 17 -42 34 -41 38 1 4 -4 8 -12 8 -8 0 -12 -4
-9 -9 7 -12 -20 -10 -32 2 -8 8 -15 6 -24 -5z m146 -66 c8 -14 -49 1 -58 15
-4 6 -8 14 -8 18 0 9 58 -20 66 -33z"/>
<path d="M3626 602 c-3 -5 1 -9 9 -9 8 0 15 4 15 9 0 4 -4 8 -9 8 -6 0 -12 -4
-15 -8z"/>
<path d="M3594 591 c3 -5 -1 -14 -9 -21 -16 -13 -21 -35 -6 -26 5 3 11 -1 14
-9 4 -9 1 -12 -9 -8 -17 6 -19 -24 -3 -47 8 -12 9 -11 4 6 -4 15 0 24 10 28
12 4 14 10 5 25 -15 29 -12 39 5 17 12 -16 15 -17 15 -4 0 24 -11 48 -22 48
-5 0 -7 -4 -4 -9z"/>
<path d="M3536 516 c3 -9 11 -16 16 -16 13 0 5 23 -10 28 -7 2 -10 -2 -6 -12z"/>
<path d="M3510 510 c0 -5 5 -10 11 -10 5 0 7 5 4 10 -3 6 -8 10 -11 10 -2 0
-4 -4 -4 -10z"/>
<path d="M3065 490 c-8 -12 16 -50 33 -50 7 0 15 -7 18 -15 8 -21 21 -19 27 5
3 10 2 19 -2 18 -3 0 -17 1 -31 2 -16 1 -19 4 -9 7 23 6 12 43 -12 43 -10 0
-20 -4 -24 -10z m30 -10 c3 -5 1 -10 -4 -10 -6 0 -11 5 -11 10 0 6 2 10 4 10
3 0 8 -4 11 -10z"/>
<path d="M3474 479 c-10 -17 13 -36 27 -22 6 6 18 9 25 6 8 -3 14 0 14 6 0 6
-3 11 -7 12 -5 0 -18 2 -30 5 -12 2 -25 -1 -29 -7z"/>
<path d="M3550 474 c0 -8 5 -12 10 -9 6 3 10 10 10 16 0 5 -4 9 -10 9 -5 0
-10 -7 -10 -16z"/>
<path d="M3030 465 c0 -8 2 -15 4 -15 2 0 12 -3 21 -6 15 -6 15 -4 4 15 -16
25 -29 27 -29 6z"/>
<path d="M3510 450 c0 -6 7 -10 15 -10 8 0 15 2 15 4 0 2 -7 6 -15 10 -8 3
-15 1 -15 -4z"/>
<path d="M3018 435 c-9 -10 2 -36 13 -29 5 3 9 0 9 -5 0 -6 9 -11 20 -11 11 0
20 5 20 10 0 6 -7 10 -16 10 -9 0 -22 7 -28 16 -6 8 -14 12 -18 9z"/>
<path d="M3200 420 c0 -6 8 -10 18 -11 15 0 14 -2 -3 -10 -18 -8 -18 -8 5 -6
14 1 24 6 23 12 -2 13 -43 27 -43 15z"/>
<path d="M3520 425 c0 -5 5 -17 10 -25 5 -8 10 -10 10 -5 0 6 -5 17 -10 25 -5
8 -10 11 -10 5z"/>
<path d="M3272 403 c-6 -2 -10 -9 -6 -14 3 -5 -12 -9 -32 -9 -47 0 -41 -6 12
-12 37 -5 40 -4 40 18 0 13 0 24 0 23 -1 0 -7 -3 -14 -6z"/>
<path d="M3340 401 c-27 -5 -31 -8 -15 -12 11 -3 34 0 50 7 32 14 22 15 -35 5z"/>
<path d="M3388 383 c7 -3 16 -2 19 1 4 3 -2 6 -13 5 -11 0 -14 -3 -6 -6z"/>
<path d="M3300 370 c0 -5 4 -10 9 -10 6 0 13 5 16 10 3 6 -1 10 -9 10 -9 0
-16 -4 -16 -10z"/>
<path d="M3106 354 c-5 -13 -9 -14 -21 -4 -8 7 -15 9 -15 5 0 -11 40 -59 41
-49 9 67 7 80 -5 48z"/>
<path d="M3388 363 c7 -3 16 -2 19 1 4 3 -2 6 -13 5 -11 0 -14 -3 -6 -6z"/>
<path d="M3494 345 c-4 -8 -10 -12 -15 -9 -5 3 -6 -1 -3 -9 3 -8 -3 -20 -12
-28 -15 -12 -16 -12 -11 6 4 11 3 26 -2 34 -6 9 -8 4 -7 -17 1 -17 8 -37 15
-44 11 -10 12 -10 7 0 -4 6 -3 12 2 12 4 0 16 16 25 35 9 19 14 35 12 35 -3 0
-8 -7 -11 -15z"/>
<path d="M3148 275 c-4 -4 2 -16 12 -28 11 -11 17 -23 15 -27 -3 -5 1 -10 8
-13 7 -3 13 5 13 19 1 14 -2 21 -8 18 -6 -4 -7 2 -3 17 7 21 6 22 -8 11 -10
-9 -16 -9 -19 -2 -2 6 -6 8 -10 5z"/>
<path d="M3370 270 c0 -5 5 -10 10 -10 6 0 10 5 10 10 0 6 -4 10 -10 10 -5 0
-10 -4 -10 -10z"/>
<path d="M3410 260 c0 -5 6 -10 14 -10 8 0 18 5 21 10 3 6 -3 10 -14 10 -12 0
-21 -4 -21 -10z"/>
<path d="M3400 220 c0 -5 4 -10 9 -10 6 0 13 5 16 10 3 6 -1 10 -9 10 -9 0
-16 -4 -16 -10z"/>
<path d="M3363 190 c-1 -16 1 -17 12 -7 7 6 11 15 8 20 -8 13 -19 7 -20 -13z"/>
<path d="M3224 188 c-3 -5 3 -18 15 -29 25 -23 28 -14 4 13 -9 10 -11 18 -5
18 6 0 17 -9 25 -21 15 -20 15 -20 14 3 -2 16 -8 23 -25 24 -12 1 -25 -2 -28
-8z"/>
<path d="M3380 169 c0 -5 5 -7 10 -4 6 3 10 8 10 11 0 2 -4 4 -10 4 -5 0 -10
-5 -10 -11z"/>
<path d="M3366 147 c3 -10 9 -15 12 -12 3 3 0 11 -7 18 -10 9 -11 8 -5 -6z"/>
<path d="M3270 124 c0 -10 24 -37 41 -46 8 -4 39 22 39 33 0 16 -18 9 -23 -8
-4 -17 -5 -17 -6 0 0 9 -6 17 -12 17 -5 0 -7 -4 -4 -10 3 -5 2 -10 -4 -10 -5
0 -15 8 -20 18 -6 9 -11 12 -11 6z"/>
</g>
</svg>
